<svg width="31" height="31" viewBox="0 0 31 31" fill="none" xmlns="http://www.w3.org/2000/svg">
<path d="M15.5003 0.916672C7.44303 0.916672 0.916992 7.44271 0.916992 15.5C0.916992 23.5573 7.44303 30.0833 15.5003 30.0833C23.5576 30.0833 30.0837 23.5573 30.0837 15.5C30.0837 7.44271 23.5576 0.916672 15.5003 0.916672ZM3.83366 15.5C3.83366 9.05417 9.05449 3.83334 15.5003 3.83334C18.1982 3.83334 20.6701 4.75938 22.6462 6.29063L6.29095 22.6458C4.7597 20.6698 3.83366 18.1979 3.83366 15.5ZM15.5003 27.1667C12.8024 27.1667 10.3305 26.2406 8.35449 24.7094L24.7097 8.35417C26.241 10.3302 27.167 12.8021 27.167 15.5C27.167 21.9458 21.9462 27.1667 15.5003 27.1667Z" fill="#FF9C34"/>
</svg>
