<svg width="22" height="22" viewBox="0 0 22 22" fill="none" xmlns="http://www.w3.org/2000/svg">
<path d="M10.9999 15.1724C12.4663 15.1724 13.6551 13.9836 13.6551 12.5172C13.6551 11.0508 12.4663 9.86206 10.9999 9.86206C9.53349 9.86206 8.34473 11.0508 8.34473 12.5172C8.34473 13.9836 9.53349 15.1724 10.9999 15.1724Z" fill="#0E014C" fill-opacity="0.85"/>
<path d="M18.9654 6.06895H16.4778C16.3186 6.06899 16.1633 6.01889 16.0341 5.92576C15.9049 5.83262 15.8082 5.70118 15.7579 5.55006L15.5182 4.83013C15.4174 4.52802 15.2241 4.2653 14.9657 4.07917C14.7072 3.89305 14.3968 3.79296 14.0783 3.79309H7.92061C7.60217 3.79317 7.29183 3.89345 7.03355 4.0797C6.77526 4.26596 6.58213 4.52876 6.4815 4.83088L6.24178 5.55006C6.19145 5.70118 6.09482 5.83262 5.9656 5.92576C5.83639 6.01889 5.68113 6.06899 5.52185 6.06895H3.03433C2.63193 6.06895 2.24602 6.22881 1.96148 6.51334C1.67694 6.79788 1.51709 7.1838 1.51709 7.58619V16.6896C1.51709 17.092 1.67694 17.478 1.96148 17.7625C2.24602 18.047 2.63193 18.2069 3.03433 18.2069H18.9654C19.3678 18.2069 19.7537 18.047 20.0382 17.7625C20.3228 17.478 20.4826 17.092 20.4826 16.6896V7.58619C20.4826 7.1838 20.3228 6.79788 20.0382 6.51334C19.7537 6.22881 19.3678 6.06895 18.9654 6.06895ZM10.9998 16.6896C8.69971 16.6896 6.82743 14.8174 6.82743 12.5172C6.82743 10.2171 8.69971 8.34482 10.9998 8.34482C13.3 8.34482 15.1723 10.2171 15.1723 12.5172C15.1723 14.8174 13.3 16.6896 10.9998 16.6896ZM15.5516 9.10344C15.3504 9.10344 15.1574 9.02351 15.0151 8.88124C14.8729 8.73897 14.793 8.54601 14.793 8.34482C14.793 8.14362 14.8729 7.95066 15.0151 7.80839C15.1574 7.66612 15.3504 7.58619 15.5516 7.58619C15.7528 7.58619 15.9457 7.66612 16.088 7.80839C16.2303 7.95066 16.3102 8.14362 16.3102 8.34482C16.3102 8.54601 16.2303 8.73897 16.088 8.88124C15.9457 9.02351 15.7528 9.10344 15.5516 9.10344Z" fill="#0E014C" fill-opacity="0.85"/>
<path d="M4.17243 5.31035H2.65519C2.55459 5.31035 2.45811 5.27038 2.38698 5.19925C2.31584 5.12812 2.27588 5.03164 2.27588 4.93104C2.27588 4.83044 2.31584 4.73396 2.38698 4.66282C2.45811 4.59169 2.55459 4.55173 2.65519 4.55173H4.17243C4.27303 4.55173 4.36951 4.59169 4.44064 4.66282C4.51178 4.73396 4.55174 4.83044 4.55174 4.93104C4.55174 5.03164 4.51178 5.12812 4.44064 5.19925C4.36951 5.27038 4.27303 5.31035 4.17243 5.31035Z" fill="#0E014C" fill-opacity="0.85"/>
</svg>
