<svg width="24" height="27" viewBox="0 0 24 27" fill="none" xmlns="http://www.w3.org/2000/svg">
<g clip-path="url(#clip0_461_128)">
<path d="M19.1399 13.9448C19.1399 13.4048 18.7269 12.9918 18.1869 12.9918C17.6469 12.9918 17.234 13.4048 17.234 13.9448C17.234 17.6612 14.2163 20.6789 10.4999 20.6789C6.78339 20.6789 3.76575 17.6612 3.76575 13.9448C3.76575 13.4048 3.3528 12.9918 2.8128 12.9918C2.2728 12.9918 1.85986 13.4048 1.85986 13.9448C1.85986 18.3601 5.16339 22.0765 9.54692 22.553V25.0942H6.08457C5.54457 25.0942 5.13163 25.5071 5.13163 26.0471C5.13163 26.5871 5.54457 27.0001 6.08457 27.0001H14.9152C15.4552 27.0001 15.8681 26.5871 15.8681 26.0471C15.8681 25.5071 15.4552 25.0942 14.9152 25.0942H11.4528V22.553C15.8363 22.0765 19.1399 18.3601 19.1399 13.9448Z" fill="#0E014C"/>
<path d="M10.5 0C7.57766 0 5.19531 2.38235 5.19531 5.30471V13.9129C5.19531 16.8671 7.57766 19.2176 10.5 19.2494C13.4224 19.2494 15.8047 16.8671 15.8047 13.9447V5.30471C15.8047 2.38235 13.4224 0 10.5 0Z" fill="#0E014C"/>
</g>
<defs>
<clipPath id="clip0_461_128">
<rect width="27" height="27" fill="white" transform="translate(-3)"/>
</clipPath>
</defs>
</svg>
