<svg width="27" height="27" viewBox="0 0 27 27" fill="none" xmlns="http://www.w3.org/2000/svg">
<path d="M22.5556 1H3.69444C2.20634 1 1 2.20634 1 3.69444V22.5556C1 24.0437 2.20634 25.25 3.69444 25.25H22.5556C24.0437 25.25 25.25 24.0437 25.25 22.5556V3.69444C25.25 2.20634 24.0437 1 22.5556 1Z" fill="#0080FF" stroke="white" stroke-width="2" stroke-linecap="round" stroke-linejoin="round"/>
<path d="M8.40951 10.4303C9.52558 10.4303 10.4303 9.52558 10.4303 8.40951C10.4303 7.29343 9.52558 6.38867 8.40951 6.38867C7.29343 6.38867 6.38867 7.29343 6.38867 8.40951C6.38867 9.52558 7.29343 10.4303 8.40951 10.4303Z" fill="#0080FF" stroke="white" stroke-width="2" stroke-linecap="round" stroke-linejoin="round"/>
<path d="M25.2509 17.1668L18.5148 10.4307L3.69531 25.2501" fill="#0080FF"/>
<path d="M25.2509 17.1668L18.5148 10.4307L3.69531 25.2501" stroke="white" stroke-width="2" stroke-linecap="round" stroke-linejoin="round"/>
</svg>
