<svg width="249" height="258" viewBox="0 0 249 258" fill="none" xmlns="http://www.w3.org/2000/svg">
<g opacity="0.3">
<path d="M52.3078 147.906H109.934C114.086 147.906 117.464 144.528 117.464 140.375V82.7492C117.464 78.5972 114.086 75.2188 109.934 75.2188H52.3078C48.1558 75.2188 44.7773 78.5968 44.7773 82.7492V140.375C44.7773 144.528 48.1554 147.906 52.3078 147.906Z" fill="#69CAF7"/>
<path d="M195.962 75.2188H138.336C134.184 75.2188 130.806 78.5968 130.806 82.7492V140.375C130.806 144.527 134.184 147.906 138.336 147.906H195.962C200.114 147.906 203.493 144.528 203.493 140.375V82.7492C203.493 78.5972 200.115 75.2188 195.962 75.2188Z" fill="#69CAF7"/>
<path d="M110.048 161.049H52.422C48.27 161.049 44.8916 164.428 44.8916 168.58V226.206C44.8916 230.358 48.2696 233.737 52.422 233.737H110.048C114.2 233.737 117.579 230.359 117.579 226.206V168.58C117.579 164.428 114.2 161.049 110.048 161.049Z" fill="#69CAF7"/>
<path d="M79.1853 50.9922H45.0461C31.6674 50.9922 20.7832 61.8768 20.7832 75.2551V109.55C20.7832 112.898 23.4976 115.613 26.8457 115.613C30.1938 115.613 32.9082 112.898 32.9082 109.55V75.2551C32.9082 68.5625 38.3531 63.1172 45.0461 63.1172H79.1853C82.5334 63.1172 85.2478 60.4028 85.2478 57.0547C85.2478 53.7066 82.5334 50.9922 79.1853 50.9922Z" fill="#D9EEFF"/>
<path d="M79.1853 245.801H45.0461C38.3531 245.801 32.9082 240.356 32.9082 233.663V199.481C32.9082 196.132 30.1938 193.418 26.8457 193.418C23.4976 193.418 20.7832 196.132 20.7832 199.481V233.663C20.7832 247.041 31.6674 257.926 45.0461 257.926H79.1853C82.5334 257.926 85.2478 255.211 85.2478 251.863C85.2478 248.515 82.5334 245.801 79.1853 245.801Z" fill="#D9EEFF"/>
<path d="M221.654 193.418C218.306 193.418 215.592 196.133 215.592 199.481V233.663C215.592 240.356 210.147 245.801 203.454 245.801H169.339C165.991 245.801 163.276 248.515 163.276 251.863C163.276 255.212 165.991 257.926 169.339 257.926H203.454C216.832 257.926 227.717 247.042 227.717 233.663V199.481C227.717 196.132 225.002 193.418 221.654 193.418Z" fill="#D9EEFF"/>
<path d="M203.454 50.9922H169.339C165.991 50.9922 163.276 53.7066 163.276 57.0547C163.276 60.4028 165.991 63.1172 169.339 63.1172H203.454C210.147 63.1172 215.592 68.5625 215.592 75.2551V109.55C215.592 112.898 218.306 115.613 221.654 115.613C225.002 115.613 227.717 112.898 227.717 109.55V75.2551C227.717 61.8768 216.833 50.9922 203.454 50.9922Z" fill="#D9EEFF"/>
<path d="M170.02 227.674C170.02 231.021 172.734 233.736 176.082 233.736H196.078C200.23 233.736 203.607 230.358 203.607 226.205V207.396C203.607 204.048 200.893 201.333 197.545 201.333C194.197 201.333 191.482 204.048 191.482 207.396V221.611H176.082C172.734 221.611 170.02 224.326 170.02 227.674Z" fill="#D9EEFF"/>
<path d="M160.681 187.188C160.681 183.84 157.966 181.125 154.618 181.125H140.036C135.82 181.125 132.389 184.556 132.389 188.773V207.396C132.389 210.744 135.104 213.459 138.452 213.459C141.8 213.459 144.514 210.744 144.514 207.396V193.25H154.618C157.966 193.25 160.681 190.536 160.681 187.188Z" fill="#D9EEFF"/>
<path d="M136.869 174.642H173.748V201.334H158.34C154.991 201.334 152.277 204.048 152.277 207.396C152.277 210.744 154.991 213.459 158.34 213.459H179.369C182.956 213.459 185.873 210.541 185.873 206.954V170.165C185.873 165.947 182.443 162.517 178.225 162.517H136.869C133.521 162.517 130.806 165.232 130.806 168.579C130.806 171.927 133.521 174.642 136.869 174.642Z" fill="#D9EEFF"/>
<path d="M197.431 193.25C200.778 193.25 203.493 190.536 203.493 187.188V168.579C203.493 165.232 200.778 162.517 197.431 162.517C194.083 162.517 191.368 165.232 191.368 168.579V187.188C191.368 190.536 194.083 193.25 197.431 193.25Z" fill="#D9EEFF"/>
<path d="M165.935 227.674C165.935 224.326 163.22 221.611 159.872 221.611H136.869C133.521 221.611 130.806 224.326 130.806 227.674C130.806 231.021 133.521 233.736 136.869 233.736H159.872C163.22 233.736 165.935 231.022 165.935 227.674Z" fill="#D9EEFF"/>
<path d="M90.598 94.9259H71.6434C67.6959 94.9259 64.4844 98.1378 64.4844 102.085V121.04C64.4844 124.988 67.6959 128.199 71.6434 128.199H90.598C94.5455 128.199 97.757 124.988 97.757 121.04V102.085C97.757 98.1378 94.5455 94.9259 90.598 94.9259Z" fill="white"/>
<path d="M176.627 94.9259H157.673C153.725 94.9259 150.514 98.1378 150.514 102.085V121.04C150.514 124.988 153.725 128.199 157.673 128.199H176.627C180.575 128.199 183.786 124.988 183.786 121.04V102.085C183.786 98.1378 180.575 94.9259 176.627 94.9259Z" fill="white"/>
<path d="M90.598 180.756H71.6434C67.6959 180.756 64.4844 183.967 64.4844 187.916V206.87C64.4844 210.818 67.6959 214.029 71.6434 214.029H90.598C94.5455 214.029 97.757 210.818 97.757 206.87V187.916C97.757 183.968 94.5455 180.756 90.598 180.756Z" fill="white"/>
</g>
<path d="M52.3078 147.906H109.934C114.086 147.906 117.464 144.528 117.464 140.375V82.7492C117.464 78.5972 114.086 75.2188 109.934 75.2188H52.3078C48.1558 75.2188 44.7773 78.5968 44.7773 82.7492V140.375C44.7773 144.528 48.1554 147.906 52.3078 147.906Z" fill="#69CAF7"/>
<path d="M195.962 75.2188H138.336C134.184 75.2188 130.806 78.5968 130.806 82.7492V140.375C130.806 144.527 134.184 147.906 138.336 147.906H195.962C200.114 147.906 203.493 144.528 203.493 140.375V82.7492C203.493 78.5972 200.115 75.2188 195.962 75.2188Z" fill="#69CAF7"/>
<path d="M110.048 161.049H52.422C48.27 161.049 44.8916 164.428 44.8916 168.58V226.206C44.8916 230.358 48.2696 233.737 52.422 233.737H110.048C114.2 233.737 117.579 230.359 117.579 226.206V168.58C117.579 164.428 114.2 161.049 110.048 161.049Z" fill="#69CAF7"/>
<path d="M79.1853 50.9922H45.0461C31.6674 50.9922 20.7832 61.8768 20.7832 75.2551V109.55C20.7832 112.898 23.4976 115.613 26.8457 115.613C30.1938 115.613 32.9082 112.898 32.9082 109.55V75.2551C32.9082 68.5625 38.3531 63.1172 45.0461 63.1172H79.1853C82.5334 63.1172 85.2478 60.4028 85.2478 57.0547C85.2478 53.7066 82.5334 50.9922 79.1853 50.9922Z" fill="#D9EEFF"/>
<path d="M79.1853 245.801H45.0461C38.3531 245.801 32.9082 240.356 32.9082 233.663V199.481C32.9082 196.132 30.1938 193.418 26.8457 193.418C23.4976 193.418 20.7832 196.132 20.7832 199.481V233.663C20.7832 247.041 31.6674 257.926 45.0461 257.926H79.1853C82.5334 257.926 85.2478 255.211 85.2478 251.863C85.2478 248.515 82.5334 245.801 79.1853 245.801Z" fill="#D9EEFF"/>
<path d="M221.654 193.418C218.306 193.418 215.592 196.133 215.592 199.481V233.663C215.592 240.356 210.147 245.801 203.454 245.801H169.339C165.991 245.801 163.276 248.515 163.276 251.863C163.276 255.212 165.991 257.926 169.339 257.926H203.454C216.832 257.926 227.717 247.042 227.717 233.663V199.481C227.717 196.132 225.002 193.418 221.654 193.418Z" fill="#D9EEFF"/>
<path d="M203.454 50.9922H169.339C165.991 50.9922 163.276 53.7066 163.276 57.0547C163.276 60.4028 165.991 63.1172 169.339 63.1172H203.454C210.147 63.1172 215.592 68.5625 215.592 75.2551V109.55C215.592 112.898 218.306 115.613 221.654 115.613C225.002 115.613 227.717 112.898 227.717 109.55V75.2551C227.717 61.8768 216.833 50.9922 203.454 50.9922Z" fill="#D9EEFF"/>
<path d="M170.02 227.674C170.02 231.021 172.734 233.736 176.082 233.736H196.078C200.23 233.736 203.607 230.358 203.607 226.205V207.396C203.607 204.048 200.893 201.333 197.545 201.333C194.197 201.333 191.482 204.048 191.482 207.396V221.611H176.082C172.734 221.611 170.02 224.326 170.02 227.674Z" fill="#D9EEFF"/>
<path d="M160.681 187.188C160.681 183.84 157.966 181.125 154.618 181.125H140.036C135.82 181.125 132.389 184.556 132.389 188.773V207.396C132.389 210.744 135.104 213.459 138.452 213.459C141.8 213.459 144.514 210.744 144.514 207.396V193.25H154.618C157.966 193.25 160.681 190.536 160.681 187.188Z" fill="#D9EEFF"/>
<path d="M136.869 174.642H173.748V201.334H158.34C154.991 201.334 152.277 204.048 152.277 207.396C152.277 210.744 154.991 213.459 158.34 213.459H179.369C182.956 213.459 185.873 210.541 185.873 206.954V170.165C185.873 165.947 182.443 162.517 178.225 162.517H136.869C133.521 162.517 130.806 165.232 130.806 168.579C130.806 171.927 133.521 174.642 136.869 174.642Z" fill="#D9EEFF"/>
<path d="M197.431 193.25C200.778 193.25 203.493 190.536 203.493 187.188V168.579C203.493 165.232 200.778 162.517 197.431 162.517C194.083 162.517 191.368 165.232 191.368 168.579V187.188C191.368 190.536 194.083 193.25 197.431 193.25Z" fill="#D9EEFF"/>
<path d="M165.935 227.674C165.935 224.326 163.22 221.611 159.872 221.611H136.869C133.521 221.611 130.806 224.326 130.806 227.674C130.806 231.021 133.521 233.736 136.869 233.736H159.872C163.22 233.736 165.935 231.022 165.935 227.674Z" fill="#D9EEFF"/>
<path d="M90.598 94.9259H71.6434C67.6959 94.9259 64.4844 98.1378 64.4844 102.085V121.04C64.4844 124.988 67.6959 128.199 71.6434 128.199H90.598C94.5455 128.199 97.757 124.988 97.757 121.04V102.085C97.757 98.1378 94.5455 94.9259 90.598 94.9259Z" fill="white"/>
<path d="M176.627 94.9259H157.673C153.725 94.9259 150.514 98.1378 150.514 102.085V121.04C150.514 124.988 153.725 128.199 157.673 128.199H176.627C180.575 128.199 183.786 124.988 183.786 121.04V102.085C183.786 98.1378 180.575 94.9259 176.627 94.9259Z" fill="white"/>
<path d="M90.598 180.756H71.6434C67.6959 180.756 64.4844 183.967 64.4844 187.916V206.87C64.4844 210.818 67.6959 214.029 71.6434 214.029H90.598C94.5455 214.029 97.757 210.818 97.757 206.87V187.916C97.757 183.968 94.5455 180.756 90.598 180.756Z" fill="white"/>
<path d="M241.458 33.2089C241.458 33.2089 8.05189 32.4869 7.04147 33.2089C6.03105 33.9308 44.629 1.44819e-06 44.629 1.44819e-06H203.062L241.458 33.2089Z" fill="url(#paint0_linear_9_232)"/>
<path d="M245.5 33.2088C245.5 37.67 241.878 41.2922 237.417 41.2922H11.0833C6.62214 41.2922 3 37.67 3 33.2088C3 28.7477 6.62214 25.1255 11.0833 25.1255H237.417C241.878 25.1255 245.5 28.7477 245.5 33.2088Z" fill="#F1F2F6"/>
<path d="M245.5 33.2088C245.5 37.67 241.878 41.2922 237.417 41.2922H11.0833C6.62214 41.2922 3 37.67 3 33.2088C3 28.7477 6.62214 25.1255 11.0833 25.1255H237.417C241.878 25.1255 245.5 28.7477 245.5 33.2088Z" stroke="white" stroke-width="6"/>
<defs>
<linearGradient id="paint0_linear_9_232" x1="124.25" y1="33.2089" x2="124.25" y2="4.33159" gradientUnits="userSpaceOnUse">
<stop stop-color="#ECCC68"/>
<stop offset="0.5" stop-color="#ECCC68" stop-opacity="0.5"/>
<stop offset="1" stop-color="#ECCC68" stop-opacity="0"/>
</linearGradient>
</defs>
</svg>
