<svg width="343" height="510" viewBox="0 0 343 510" fill="none" xmlns="http://www.w3.org/2000/svg">
<circle cx="79.7197" cy="194.72" r="235.631" transform="rotate(7.03597 79.7197 194.72)" fill="#FF9C34"/>
<path d="M144.761 329.171L68.4998 281.457L12.5448 311.278L-77.2539 364.162L-74.5464 372.512L86.0986 471.049L133.48 440.358" stroke="#0E014C" stroke-width="0.938264"/>
<path d="M137.992 432.155L216.058 365.752L145.663 329.171" stroke="#0E014C" stroke-width="0.938264"/>
<path d="M116.783 362.531L194.398 363.208" stroke="#0E014C"/>
<path d="M91.062 378.339L145.212 435.927" stroke="#0E014C"/>
<path d="M46.3883 374.274L-7.76172 413.795" stroke="#0E014C"/>
<path d="M26.9847 362.531L-76.3516 363.208" stroke="#0E014C"/>
<path d="M60.3771 342.545L17.5083 308.105" stroke="#0E014D"/>
<path d="M168.287 338.474C169.428 338.474 170.353 339.372 170.353 340.479C170.353 341.585 169.428 342.483 168.287 342.483C167.147 342.483 166.221 341.585 166.221 340.479C166.221 339.372 167.147 338.474 168.287 338.474Z" fill="url(#paint0_linear_15_3)"/>
<path d="M192.761 382.949C193.901 382.949 194.827 383.848 194.827 384.954C194.827 386.06 193.901 386.959 192.761 386.959C191.621 386.959 190.695 386.06 190.695 384.954C190.695 383.848 191.621 382.949 192.761 382.949Z" fill="url(#paint1_linear_15_3)"/>
<path d="M105.655 455.572C106.796 455.572 107.722 456.47 107.722 457.577C107.722 458.683 106.796 459.581 105.655 459.581C104.515 459.581 103.589 458.683 103.589 457.577C103.589 456.47 104.515 455.572 105.655 455.572Z" fill="url(#paint2_linear_15_3)"/>
<path d="M57.2512 284.694C58.3915 284.694 59.3173 285.592 59.3173 286.698C59.3173 287.805 58.3915 288.703 57.2512 288.703C56.1109 288.703 55.1851 287.805 55.1851 286.698C55.1851 285.592 56.1109 284.694 57.2512 284.694Z" fill="url(#paint3_linear_15_3)"/>
<path d="M2.16623 411.593L-13.1763 420.175L3.06873 429.152L17.7908 420.118L2.16623 411.593Z" fill="#463D7E"/>
<path d="M17.7343 420.118L3.06873 429.265L-13.1763 420.231V424.07L3.06873 433.104L17.8472 423.732L17.7343 420.118Z" fill="url(#paint4_radial_15_3)"/>
<path d="M2.16623 406.06L-13.1763 414.642L3.06873 423.619L17.7908 414.585L2.16623 406.06Z" fill="#463D7E"/>
<path d="M17.7343 414.585L3.06873 423.732L-13.1763 414.698V418.538L3.06873 427.571L17.8472 418.199L17.7343 414.585Z" fill="url(#paint5_radial_15_3)"/>
<path d="M2.16623 400.753L-13.1763 409.335L3.06873 418.312L17.7908 409.278L2.16623 400.753Z" fill="#463D7E"/>
<path d="M17.7343 409.278L3.06873 418.425L-13.1763 409.391V413.23L3.06873 422.264L17.8472 412.892L17.7343 409.278Z" fill="url(#paint6_radial_15_3)"/>
<path d="M2.05344 395.333L-13.2891 403.915L2.95593 412.892L17.678 403.858L2.05344 395.333Z" fill="#463D7E"/>
<path d="M17.6216 403.858L2.95594 413.005L-13.2891 403.971V407.81L2.95594 416.844L17.7344 407.472L17.6216 403.858Z" fill="url(#paint7_radial_15_3)"/>
<path d="M142.956 430.111L127.614 438.693L143.859 447.67L158.581 438.637L142.956 430.111Z" fill="#463D7E"/>
<path d="M158.524 438.637L143.859 447.783L127.614 438.75V442.589L143.859 451.622L158.637 442.25L158.524 438.637Z" fill="url(#paint8_radial_15_3)"/>
<path d="M142.956 424.579L127.614 433.16L143.859 442.137L158.581 433.104L142.956 424.579Z" fill="#463D7E"/>
<path d="M158.524 433.104L143.859 442.25L127.614 433.217V437.056L143.859 446.089L158.637 436.717L158.524 433.104Z" fill="url(#paint9_radial_15_3)"/>
<path d="M142.956 419.271L127.614 427.853L143.859 436.83L158.581 427.797L142.956 419.271Z" fill="#463D7E"/>
<path d="M158.524 427.797L143.859 436.943L127.614 427.91V431.749L143.859 440.782L158.637 431.41L158.524 427.797Z" fill="url(#paint10_radial_15_3)"/>
<path d="M142.843 413.851L127.501 422.433L143.746 431.41L158.468 422.377L142.843 413.851Z" fill="#463D7E"/>
<path d="M158.412 422.377L143.746 431.523L127.501 422.49V426.329L143.746 435.362L158.524 425.99L158.412 422.377Z" fill="url(#paint11_radial_15_3)"/>
<path d="M205.229 363.265L189.886 371.846L206.131 380.823L220.853 371.79L205.229 363.265Z" fill="#463D7E"/>
<path d="M220.797 371.79L206.131 380.936L189.886 371.903V375.742L206.131 384.775L220.91 375.403L220.797 371.79Z" fill="url(#paint12_radial_15_3)"/>
<path d="M205.229 357.732L189.886 366.314L206.131 375.29L220.853 366.257L205.229 357.732Z" fill="#463D7E"/>
<path d="M220.797 366.257L206.131 375.403L189.886 366.37V370.209L206.131 379.242L220.91 369.87L220.797 366.257Z" fill="url(#paint13_radial_15_3)"/>
<path d="M205.229 352.425L189.886 361.006L206.131 369.983L220.853 360.95L205.229 352.425Z" fill="#463D7E"/>
<path d="M220.797 360.95L206.131 370.096L189.886 361.063V364.902L206.131 373.935L220.91 364.563L220.797 360.95Z" fill="url(#paint14_radial_15_3)"/>
<path d="M205.116 347.005L189.773 355.586L206.018 364.563L220.74 355.53L205.116 347.005Z" fill="#463D7E"/>
<path d="M220.684 355.53L206.018 364.676L189.773 355.643V359.482L206.018 368.515L220.797 359.143L220.684 355.53Z" fill="url(#paint15_radial_15_3)"/>
<path d="M140.249 316.291L124.906 324.873L141.151 333.85L155.873 324.817L140.249 316.291Z" fill="#463D7E"/>
<path d="M155.817 324.817L141.151 333.963L124.906 324.93V328.769L141.151 337.802L155.93 328.43L155.817 324.817Z" fill="url(#paint16_radial_15_3)"/>
<path d="M140.249 310.759L124.906 319.34L141.151 328.317L155.873 319.284L140.249 310.759Z" fill="#463D7E"/>
<path d="M155.817 319.284L141.151 328.43L124.906 319.397V323.236L141.151 332.269L155.93 322.897L155.817 319.284Z" fill="url(#paint17_radial_15_3)"/>
<path d="M140.249 305.451L124.906 314.033L141.151 323.01L155.873 313.977L140.249 305.451Z" fill="#463D7E"/>
<path d="M155.817 313.977L141.151 323.123L124.906 314.09V317.929L141.151 326.962L155.93 317.59L155.817 313.977Z" fill="url(#paint18_radial_15_3)"/>
<path d="M140.136 300.031L124.793 308.613L141.038 317.59L155.761 308.557L140.136 300.031Z" fill="#463D7E"/>
<path d="M155.704 308.557L141.038 317.703L124.793 308.67V312.509L141.038 321.542L155.817 312.17L155.704 308.557Z" fill="url(#paint19_radial_15_3)"/>
<path d="M12.9963 298.676L-2.34619 307.258L13.8988 316.235L28.6208 307.202L12.9963 298.676Z" fill="#463D7E"/>
<path d="M28.5644 307.202L13.8988 316.348L-2.34619 307.315V311.154L13.8988 320.187L28.6772 310.815L28.5644 307.202Z" fill="url(#paint20_radial_15_3)"/>
<path d="M12.9963 293.144L-2.34619 301.725L13.8988 310.702L28.6208 301.669L12.9963 293.144Z" fill="#463D7E"/>
<path d="M28.5644 301.669L13.8988 310.815L-2.34619 301.782V305.621L13.8988 314.654L28.6772 305.282L28.5644 301.669Z" fill="url(#paint21_radial_15_3)"/>
<path d="M12.9963 287.836L-2.34619 296.418L13.8988 305.395L28.6208 296.362L12.9963 287.836Z" fill="#463D7E"/>
<path d="M28.5644 296.362L13.8988 305.508L-2.34619 296.475V300.314L13.8988 309.347L28.6772 299.975L28.5644 296.362Z" fill="url(#paint22_radial_15_3)"/>
<path d="M12.8835 282.416L-2.45898 290.998L13.786 299.975L28.508 290.942L12.8835 282.416Z" fill="#463D7E"/>
<path d="M28.4516 290.942L13.786 300.088L-2.45898 291.055V294.894L13.786 303.927L28.5645 294.555L28.4516 290.942Z" fill="url(#paint23_radial_15_3)"/>
<path d="M71.8844 335.205L26.0825 362.983L74.1406 390.083L118.589 362.531L71.8844 335.205Z" fill="url(#paint24_linear_15_3)"/>
<path d="M72.7868 344.464L40.5225 363.208L73.6893 382.404L103.472 363.886L72.7868 344.464Z" fill="url(#paint25_linear_15_3)"/>
<path d="M72.7868 344.464L40.5225 363.208L73.6893 382.404L103.472 363.886L72.7868 344.464Z" stroke="white"/>
<path d="M80.571 319.961L72.5613 325.042L63.3107 320.3L54.7369 325.494L54.6241 334.979L45.8247 340.06L45.7119 349.997L54.6241 354.514V364.338L63.1979 368.967L71.7716 364.563L80.3454 369.306L88.8063 363.999L88.6935 354.514L97.2672 349.997L97.1544 339.947L89.1447 335.092L88.8063 324.93L80.571 319.961Z" stroke="#463D7E"/>
<path d="M54.9624 325.043L63.4233 329.898L72.1099 325.043L80.6836 329.898L88.919 324.817L89.0318 324.93" stroke="#463D7E"/>
<path d="M54.624 335.318L63.3106 340.173L71.8843 334.979L80.3453 340.06L89.2575 334.979" stroke="#463D7E"/>
<path d="M45.7119 350.11L54.3985 354.965L63.1979 349.771L71.7716 354.74L80.3454 349.658L88.8063 354.627L97.4929 349.771" stroke="#463D7E"/>
<path d="M54.624 354.74L63.3106 359.595L71.7715 354.627L80.1196 359.482L89.0318 354.401" stroke="#463D7E"/>
<path d="M46.1631 339.948L54.5112 345.142L63.1978 340.06L71.7715 344.464L80.2324 339.496L88.8062 344.916L97.3799 339.722" stroke="#463D7E"/>
<path d="M54.6241 344.577L54.2856 354.514" stroke="#463D7E"/>
<path d="M63.3106 329.672L63.1978 349.884" stroke="#463D7E"/>
<path d="M63.4234 359.369L63.085 369.306" stroke="#463D7E"/>
<path d="M71.6587 364.563L72.11 344.464" stroke="#463D7E"/>
<path d="M88.6934 364.225L89.1446 344.916" stroke="#463D7E"/>
<path d="M80.0068 369.532V359.482" stroke="#463D7E"/>
<path d="M80.1196 350.11L80.5709 329.559L71.8843 324.93L71.7715 334.979" stroke="#463D7E"/>
<defs>
<linearGradient id="paint0_linear_15_3" x1="170.206" y1="340.55" x2="166.295" y2="340.474" gradientUnits="userSpaceOnUse">
<stop stop-color="#0E014C"/>
<stop offset="0.5" stop-color="#0E014C"/>
<stop offset="1" stop-color="#463D7E"/>
</linearGradient>
<linearGradient id="paint1_linear_15_3" x1="194.679" y1="385.026" x2="190.769" y2="384.95" gradientUnits="userSpaceOnUse">
<stop stop-color="#0E014C"/>
<stop offset="0.5" stop-color="#0E014C"/>
<stop offset="1" stop-color="#463D7E"/>
</linearGradient>
<linearGradient id="paint2_linear_15_3" x1="107.574" y1="457.648" x2="103.663" y2="457.572" gradientUnits="userSpaceOnUse">
<stop stop-color="#0E014C"/>
<stop offset="0.5" stop-color="#9631B5"/>
<stop offset="1" stop-color="#463D7E"/>
</linearGradient>
<linearGradient id="paint3_linear_15_3" x1="59.1697" y1="286.77" x2="55.2589" y2="286.694" gradientUnits="userSpaceOnUse">
<stop stop-color="#E626EB"/>
<stop offset="0.5" stop-color="#9631B5"/>
<stop offset="1" stop-color="#463D7E"/>
</linearGradient>
<radialGradient id="paint4_radial_15_3" cx="0" cy="0" r="1" gradientUnits="userSpaceOnUse" gradientTransform="translate(149.161 440.782) scale(45.125 45.1667)">
<stop stop-color="#0E014C"/>
<stop offset="0.48" stop-color="#0E014C"/>
<stop offset="1" stop-color="#0E014C"/>
</radialGradient>
<radialGradient id="paint5_radial_15_3" cx="0" cy="0" r="1" gradientUnits="userSpaceOnUse" gradientTransform="translate(149.161 435.249) scale(45.125 45.1667)">
<stop stop-color="#0E014C"/>
<stop offset="0.5" stop-color="#0E014C"/>
<stop offset="1" stop-color="#0E014C"/>
</radialGradient>
<radialGradient id="paint6_radial_15_3" cx="0" cy="0" r="1" gradientUnits="userSpaceOnUse" gradientTransform="translate(149.161 429.942) scale(45.125 45.1667)">
<stop stop-color="#0E014C"/>
<stop offset="0.5" stop-color="#0E014C"/>
<stop offset="1" stop-color="#0E014C"/>
</radialGradient>
<radialGradient id="paint7_radial_15_3" cx="0" cy="0" r="1" gradientUnits="userSpaceOnUse" gradientTransform="translate(149.048 424.522) scale(45.125 45.1667)">
<stop stop-color="#0E014C"/>
<stop offset="0.5" stop-color="#0E014C"/>
<stop offset="1" stop-color="#0E014C"/>
</radialGradient>
<radialGradient id="paint8_radial_15_3" cx="0" cy="0" r="1" gradientUnits="userSpaceOnUse" gradientTransform="translate(289.951 459.3) scale(45.125 45.1666)">
<stop stop-color="#0E014C"/>
<stop offset="0.48" stop-color="#0E014C"/>
<stop offset="1" stop-color="#0E014C"/>
</radialGradient>
<radialGradient id="paint9_radial_15_3" cx="0" cy="0" r="1" gradientUnits="userSpaceOnUse" gradientTransform="translate(289.951 453.767) scale(45.125 45.1666)">
<stop stop-color="#0E014C"/>
<stop offset="0.5" stop-color="#0E014C"/>
<stop offset="1" stop-color="#0E014C"/>
</radialGradient>
<radialGradient id="paint10_radial_15_3" cx="0" cy="0" r="1" gradientUnits="userSpaceOnUse" gradientTransform="translate(289.951 448.46) scale(45.125 45.1665)">
<stop stop-color="#0E014C"/>
<stop offset="0.5" stop-color="#0E014C"/>
<stop offset="1" stop-color="#0E014C"/>
</radialGradient>
<radialGradient id="paint11_radial_15_3" cx="0" cy="0" r="1" gradientUnits="userSpaceOnUse" gradientTransform="translate(289.838 443.04) scale(45.125 45.1665)">
<stop stop-color="#0E014C"/>
<stop offset="0.5" stop-color="#0E014C"/>
<stop offset="1" stop-color="#0E014C"/>
</radialGradient>
<radialGradient id="paint12_radial_15_3" cx="0" cy="0" r="1" gradientUnits="userSpaceOnUse" gradientTransform="translate(352.223 392.454) scale(45.125 45.1667)">
<stop stop-color="#0E014C"/>
<stop offset="0.48" stop-color="#0E014C"/>
<stop offset="1" stop-color="#0E014C"/>
</radialGradient>
<radialGradient id="paint13_radial_15_3" cx="0" cy="0" r="1" gradientUnits="userSpaceOnUse" gradientTransform="translate(352.223 386.921) scale(45.125 45.1667)">
<stop stop-color="#0E014C"/>
<stop offset="0.5" stop-color="#0E014C"/>
<stop offset="1" stop-color="#0E014C"/>
</radialGradient>
<radialGradient id="paint14_radial_15_3" cx="0" cy="0" r="1" gradientUnits="userSpaceOnUse" gradientTransform="translate(352.223 381.614) scale(45.125 45.1667)">
<stop stop-color="#0E014C"/>
<stop offset="0.5" stop-color="#0E014C"/>
<stop offset="1" stop-color="#0E014C"/>
</radialGradient>
<radialGradient id="paint15_radial_15_3" cx="0" cy="0" r="1" gradientUnits="userSpaceOnUse" gradientTransform="translate(352.111 376.194) scale(45.125 45.1667)">
<stop stop-color="#0E014C"/>
<stop offset="0.5" stop-color="#0E014C"/>
<stop offset="1" stop-color="#0E014C"/>
</radialGradient>
<radialGradient id="paint16_radial_15_3" cx="0" cy="0" r="1" gradientUnits="userSpaceOnUse" gradientTransform="translate(287.243 345.48) scale(45.125 45.1667)">
<stop stop-color="#0E014C"/>
<stop offset="0.48" stop-color="#0E014C"/>
<stop offset="1" stop-color="#0E014C"/>
</radialGradient>
<radialGradient id="paint17_radial_15_3" cx="0" cy="0" r="1" gradientUnits="userSpaceOnUse" gradientTransform="translate(287.243 339.947) scale(45.125 45.1666)">
<stop stop-color="#0E014C"/>
<stop offset="0.5" stop-color="#0E014C"/>
<stop offset="1" stop-color="#0E014C"/>
</radialGradient>
<radialGradient id="paint18_radial_15_3" cx="0" cy="0" r="1" gradientUnits="userSpaceOnUse" gradientTransform="translate(287.243 334.64) scale(45.125 45.1667)">
<stop stop-color="#0E014C"/>
<stop offset="0.5" stop-color="#0E014C"/>
<stop offset="1" stop-color="#0E014C"/>
</radialGradient>
<radialGradient id="paint19_radial_15_3" cx="0" cy="0" r="1" gradientUnits="userSpaceOnUse" gradientTransform="translate(287.131 329.22) scale(45.125 45.1667)">
<stop stop-color="#0E014C"/>
<stop offset="0.5" stop-color="#0E014C"/>
<stop offset="1" stop-color="#0E014C"/>
</radialGradient>
<radialGradient id="paint20_radial_15_3" cx="0" cy="0" r="1" gradientUnits="userSpaceOnUse" gradientTransform="translate(159.991 327.865) scale(45.125 45.1667)">
<stop stop-color="#0E014C"/>
<stop offset="0.48" stop-color="#0E014C"/>
<stop offset="1" stop-color="#0E014C"/>
</radialGradient>
<radialGradient id="paint21_radial_15_3" cx="0" cy="0" r="1" gradientUnits="userSpaceOnUse" gradientTransform="translate(159.991 322.332) scale(45.125 45.1667)">
<stop stop-color="#0E014C"/>
<stop offset="0.5" stop-color="#0E014C"/>
<stop offset="1" stop-color="#0E014C"/>
</radialGradient>
<radialGradient id="paint22_radial_15_3" cx="0" cy="0" r="1" gradientUnits="userSpaceOnUse" gradientTransform="translate(159.991 317.025) scale(45.125 45.1667)">
<stop stop-color="#0E014C"/>
<stop offset="0.5" stop-color="#0E014C"/>
<stop offset="1" stop-color="#0E014C"/>
</radialGradient>
<radialGradient id="paint23_radial_15_3" cx="0" cy="0" r="1" gradientUnits="userSpaceOnUse" gradientTransform="translate(159.878 311.605) scale(45.125 45.1667)">
<stop stop-color="#0E014C"/>
<stop offset="0.5" stop-color="#0E014C"/>
<stop offset="1" stop-color="#0E014C"/>
</radialGradient>
<linearGradient id="paint24_linear_15_3" x1="72.3356" y1="344.238" x2="73.2398" y2="381.952" gradientUnits="userSpaceOnUse">
<stop stop-color="#8338A7"/>
<stop offset="0.5" stop-color="#0E014C"/>
<stop offset="1" stop-color="#EB3FF0"/>
</linearGradient>
<linearGradient id="paint25_linear_15_3" x1="73.0125" y1="344.464" x2="73.9166" y2="381.275" gradientUnits="userSpaceOnUse">
<stop stop-color="#0E014C"/>
<stop offset="0.5" stop-color="#0E014C"/>
<stop offset="1" stop-color="#0E014C"/>
</linearGradient>
</defs>
</svg>
