<svg width="21" height="21" viewBox="0 0 21 21" fill="none" xmlns="http://www.w3.org/2000/svg">
<path d="M10.5 0.916656C5.21002 0.916656 0.916687 5.20999 0.916687 10.5C0.916687 15.79 5.21002 20.0833 10.5 20.0833C15.79 20.0833 20.0834 15.79 20.0834 10.5C20.0834 5.20999 15.79 0.916656 10.5 0.916656ZM5.77544 16.5183C6.18752 15.6558 8.69835 14.8125 10.5 14.8125C12.3017 14.8125 14.8221 15.6558 15.2246 16.5183C13.9213 17.5533 12.2825 18.1667 10.5 18.1667C8.71752 18.1667 7.07877 17.5533 5.77544 16.5183ZM16.595 15.1287C15.2246 13.4612 11.8992 12.8958 10.5 12.8958C9.10085 12.8958 5.77544 13.4612 4.40502 15.1287C3.42752 13.8446 2.83335 12.2442 2.83335 10.5C2.83335 6.27374 6.27377 2.83332 10.5 2.83332C14.7263 2.83332 18.1667 6.27374 18.1667 10.5C18.1667 12.2442 17.5725 13.8446 16.595 15.1287V15.1287ZM10.5 4.74999C8.64085 4.74999 7.14585 6.24499 7.14585 8.10416C7.14585 9.96332 8.64085 11.4583 10.5 11.4583C12.3592 11.4583 13.8542 9.96332 13.8542 8.10416C13.8542 6.24499 12.3592 4.74999 10.5 4.74999ZM10.5 9.54166C9.7046 9.54166 9.06252 8.89957 9.06252 8.10416C9.06252 7.30874 9.7046 6.66666 10.5 6.66666C11.2954 6.66666 11.9375 7.30874 11.9375 8.10416C11.9375 8.89957 11.2954 9.54166 10.5 9.54166Z" fill="#C7D1D7"/>
</svg>
