<svg width="32" height="32" viewBox="0 0 32 32" fill="none" xmlns="http://www.w3.org/2000/svg">
<g clip-path="url(#clip0_1616_795)">
<path d="M15 1C15 1.26522 15.1054 1.51957 15.2929 1.70711C15.4804 1.89464 15.7348 2 16 2C19.7395 2 23.255 3.4565 25.899 6.101C28.5435 8.745 30 12.2605 30 16C30 19.6905 28.579 23.1615 26 25.7935V23C26 22.7348 25.8946 22.4804 25.7071 22.2929C25.5196 22.1054 25.2652 22 25 22C24.7348 22 24.4804 22.1054 24.2929 22.2929C24.1054 22.4804 24 22.7348 24 23V29H30C30.2652 29 30.5196 28.8946 30.7071 28.7071C30.8946 28.5196 31 28.2652 31 28C31 27.7348 30.8946 27.4804 30.7071 27.2929C30.5196 27.1054 30.2652 27 30 27H27.612C30.4425 24.016 32 20.1285 32 16C32 11.7265 30.3355 7.7085 27.313 4.6865C24.2915 1.6645 20.2735 0 16 0C15.7348 0 15.4804 0.105357 15.2929 0.292893C15.1054 0.48043 15 0.734784 15 1Z" fill="white"/>
<path d="M4.687 27.3135C7.7085 30.3355 11.7265 32 16 32C16.2652 32 16.5196 31.8946 16.7071 31.7071C16.8946 31.5196 17 31.2652 17 31C17 30.7348 16.8946 30.4804 16.7071 30.2929C16.5196 30.1054 16.2652 30 16 30C12.2605 30 8.745 28.5435 6.101 25.899C3.4565 23.255 2 19.7395 2 16C2 12.3095 3.421 8.8385 6 6.2065V9C6 9.26522 6.10536 9.51957 6.29289 9.70711C6.48043 9.89464 6.73478 10 7 10C7.26522 10 7.51957 9.89464 7.70711 9.70711C7.89464 9.51957 8 9.26522 8 9V3H2C1.73478 3 1.48043 3.10536 1.29289 3.29289C1.10536 3.48043 1 3.73478 1 4C1 4.26522 1.10536 4.51957 1.29289 4.70711C1.48043 4.89464 1.73478 5 2 5H4.388C1.5575 7.984 0 11.8715 0 16C0 20.2735 1.6645 24.2915 4.687 27.3135Z" fill="white"/>
</g>
<defs>
<clipPath id="clip0_1616_795">
<rect width="32" height="32" fill="white"/>
</clipPath>
</defs>
</svg>
