<svg width="17" height="17" viewBox="0 0 17 17" fill="none" xmlns="http://www.w3.org/2000/svg">
<path d="M11.1562 13.8125H2.125C1.84321 13.8125 1.57296 13.7006 1.3737 13.5013C1.17444 13.302 1.0625 13.0318 1.0625 12.75V4.25C1.0625 3.96821 1.17444 3.69796 1.3737 3.4987C1.57296 3.29944 1.84321 3.1875 2.125 3.1875H11.1562C11.438 3.1875 11.7083 3.29944 11.9076 3.4987C12.1068 3.69796 12.2188 3.96821 12.2188 4.25V6.40688L15.0981 4.35094C15.1774 4.29448 15.2707 4.2609 15.3678 4.25384C15.4648 4.24679 15.562 4.26655 15.6486 4.31095C15.7352 4.35536 15.808 4.4227 15.8589 4.50564C15.9099 4.58858 15.9371 4.68392 15.9375 4.78125V12.2188C15.9371 12.3161 15.9099 12.4114 15.8589 12.4944C15.808 12.5773 15.7352 12.6446 15.6486 12.689C15.562 12.7335 15.4648 12.7532 15.3678 12.7462C15.2707 12.7391 15.1774 12.7055 15.0981 12.6491L12.2188 10.5931V12.75C12.2188 13.0318 12.1068 13.302 11.9076 13.5013C11.7083 13.7006 11.438 13.8125 11.1562 13.8125Z" fill="white"/>
</svg>
